<svg xmlns="http://www.w3.org/2000/svg" viewBox="0 0 800 600">
  <defs>
    <linearGradient id="bg" x1="0" y1="0" x2="0" y2="1">
      <stop offset="0%" stop-color="#f4efe5"/>
      <stop offset="100%" stop-color="#ddd1bf"/>
    </linearGradient>
  </defs>
  <rect width="800" height="600" fill="url(#bg)"/>
  <rect x="150" y="70" width="500" height="460" rx="14" fill="#305f56"/>
  <g fill="#f1d8a1" opacity="0.95">
    <rect x="170" y="90" width="460" height="40"/>
    <rect x="170" y="170" width="460" height="40"/>
    <rect x="170" y="250" width="460" height="40"/>
    <rect x="170" y="330" width="460" height="40"/>
    <rect x="170" y="410" width="460" height="40"/>
    <rect x="170" y="490" width="460" height="20"/>
  </g>
  <g fill="#8b2f4a">
    <polygon points="210,110 240,90 270,110 240,130"/>
    <polygon points="330,110 360,90 390,110 360,130"/>
    <polygon points="450,110 480,90 510,110 480,130"/>
    <polygon points="570,110 600,90 630,110 600,130"/>

    <polygon points="210,190 240,170 270,190 240,210"/>
    <polygon points="330,190 360,170 390,190 360,210"/>
    <polygon points="450,190 480,170 510,190 480,210"/>
    <polygon points="570,190 600,170 630,190 600,210"/>

    <polygon points="210,270 240,250 270,270 240,290"/>
    <polygon points="330,270 360,250 390,270 360,290"/>
    <polygon points="450,270 480,250 510,270 480,290"/>
    <polygon points="570,270 600,250 630,270 600,290"/>
  </g>
</svg>
