<svg xmlns="http://www.w3.org/2000/svg" viewBox="0 0 800 600">
  <defs>
    <linearGradient id="bg" x1="0" y1="0" x2="1" y2="1">
      <stop offset="0%" stop-color="#f6e6c8"/>
      <stop offset="100%" stop-color="#d8b07d"/>
    </linearGradient>
  </defs>
  <rect width="800" height="600" fill="url(#bg)"/>
  <ellipse cx="420" cy="510" rx="230" ry="34" fill="#8f5a2d" opacity="0.22"/>
  <g fill="#9b552f" stroke="#5f3218" stroke-width="8" stroke-linejoin="round">
    <path d="M260 380 L310 290 L430 260 L520 300 L550 360 L480 400 L360 410 Z"/>
    <path d="M520 300 L590 220 L630 240 L580 320 Z"/>
    <path d="M590 220 L640 190 L650 220 L615 240 Z"/>
    <rect x="330" y="405" width="30" height="95" rx="10"/>
    <rect x="390" y="410" width="30" height="95" rx="10"/>
    <rect x="470" y="398" width="30" height="102" rx="10"/>
    <rect x="530" y="392" width="30" height="108" rx="10"/>
  </g>
  <g fill="#f2c17d" stroke="#5f3218" stroke-width="6">
    <circle cx="608" cy="232" r="8"/>
    <path d="M270 360 q40 -35 80 0 q40 35 80 0 q40 -35 80 0" fill="none"/>
  </g>
</svg>
